M48
; DRILL file {KiCad (6.0.1)} date Fri May 13 18:05:21 2022
; FORMAT={-:-/ absolute / inch / decimal}
; #@! TF.CreationDate,2022-05-13T18:05:21+02:00
; #@! TF.GenerationSoftware,Kicad,Pcbnew,(6.0.1)
; #@! TF.FileFunction,Plated,1,2,PTH
FMAT,2
INCH
; #@! TA.AperFunction,Plated,PTH,ViaDrill
T1C0.0157
; #@! TA.AperFunction,Plated,PTH,ComponentDrill
T2C0.0315
; #@! TA.AperFunction,Plated,PTH,ComponentDrill
T3C0.0394
; #@! TA.AperFunction,Plated,PTH,ComponentDrill
T4C0.0402
; #@! TA.AperFunction,Plated,PTH,ComponentDrill
T5C0.0512
; #@! TA.AperFunction,Plated,PTH,ComponentDrill
T6C0.0591
; #@! TA.AperFunction,Plated,PTH,ComponentDrill
T7C0.0598
; #@! TA.AperFunction,Plated,PTH,ComponentDrill
T8C0.2402
%
G90
G05
T1
X0.5837Y1.189
X0.5837Y1.1102
X1.3612Y1.189
X1.3612Y1.1102
X2.1093Y1.189
X2.1093Y1.1102
X2.8686Y0.4877
X2.8809Y1.626
X2.8809Y1.5768
X2.9281Y0.4882
X3.0187Y0.4941
X3.0266Y0.439
X3.1368Y0.75
X3.1959Y0.4843
X3.2057Y0.8583
X3.2844Y1.3799
X3.2844Y1.3012
X3.2943Y0.937
X3.3041Y0.4449
X3.314Y0.9764
X3.3238Y2.0689
X3.3238Y1.9606
X3.3238Y1.8622
X3.3337Y0.7205
X3.3435Y1.685
X3.3829Y2.1083
X3.4222Y0.4547
X3.4616Y2.0787
X3.4911Y2.1378
X3.501Y1.7736
X3.5699Y2.0295
X3.5699Y1.7736
X3.5896Y2.1476
X3.5962Y0.6931
X3.6289Y0.6713
X3.6585Y0.6319
X3.6978Y0.5925
X3.7274Y1.1437
X3.747Y2.2657
X3.7963Y2.2657
X3.8553Y2.315
X3.8553Y2.2657
X3.9045Y2.315
X3.9045Y2.2657
X3.9439Y1.1634
X3.9537Y2.315
X3.9537Y2.2657
X3.9636Y1.0059
X4.1703Y0.1398
X4.1998Y1.7441
X4.249Y0.4744
X4.3081Y1.1437
X4.3081Y0.9567
X4.3179Y0.1398
X4.3376Y1.9508
X4.3474Y1.7441
X4.4262Y1.3504
X4.4656Y0.622
X4.5246Y1.5374
X4.623Y0.8878
X4.7116Y0.5827
X4.7215Y1.2815
X4.7805Y0.4154
X4.7904Y2.0295
X4.8002Y1.0945
X4.8396Y0.9469
X4.8593Y0.7106
X4.8789Y1.124
X4.8888Y0.4941
X4.8986Y2.9941
X4.938Y1.4488
X4.9478Y1.0256
X4.9577Y1.6949
X4.9774Y0.0709
X4.9872Y1.8425
X4.997Y1.7343
X5.0561Y1.7146
X5.0732Y1.0236
X5.0758Y1.8445
X5.0955Y0.189
X5.1348Y2.9449
X5.1841Y0.3957
X5.2037Y0.7106
X5.253Y1.7343
X5.3317Y1.2717
X5.3514Y2.9941
X5.3612Y0.4055
X5.3809Y0.0709
X5.4104Y1.626
X5.44Y0.4252
X5.4596Y2.3268
X5.5846Y0.6791
X5.5974Y1.6654
X5.6565Y1.3701
T2
X5.0384Y2.8366
X5.2305Y2.8366
T3
X0.1526Y1.8268
X0.625Y1.8268
X0.9203Y1.8268
X1.3927Y1.8268
X1.6683Y1.8268
X2.1407Y1.8268
X2.4163Y1.8268
X2.8888Y1.8268
X4.4163Y1.1031
X4.4163Y1.0031
X4.4163Y0.9031
X4.4163Y0.8031
X4.6132Y1.0852
X4.6132Y0.9852
T4
X0.3699Y0.9665
X0.3699Y0.8484
X0.3699Y0.5433
X0.3699Y0.4252
X3.56Y2.7098
X3.6781Y2.7098
X3.7963Y2.7098
X4.1407Y2.7098
X4.2589Y2.7098
X4.6132Y2.7098
X4.7313Y2.7098
T5
X0.1506Y2.3091
X0.3868Y1.75
X0.625Y2.3071
X0.9183Y2.3091
X1.1545Y1.75
X1.3927Y2.3071
X1.6663Y2.3091
X1.9026Y1.75
X2.1407Y2.3071
X2.4144Y2.3091
X2.6506Y1.75
X2.8888Y2.3071
T6
X1.1644Y0.687
X1.1644Y0.372
X1.4006Y0.687
X1.4006Y0.372
X1.6368Y0.687
X1.6368Y0.372
X1.873Y0.687
X1.873Y0.372
X4.2982Y2.4626
X4.2982Y2.1476
T7
X0.7009Y2.8957
X0.9009Y2.8957
X1.1897Y2.8957
X1.3897Y2.8957
X1.6785Y2.8957
X1.8785Y2.8957
X2.1674Y2.8957
X2.3674Y2.8957
X2.9187Y2.8957
X3.1187Y2.8957
T8
X0.7254Y0.3465
T0
M30
