%TF.GenerationSoftware,KiCad,Pcbnew,(6.0.1)*%
%TF.CreationDate,2022-05-13T18:05:17+02:00*%
%TF.ProjectId,RV_main_pcb_ESP32,52565f6d-6169-46e5-9f70-63625f455350,rev?*%
%TF.SameCoordinates,PX3d58588PY82b3790*%
%TF.FileFunction,Legend,Bot*%
%TF.FilePolarity,Positive*%
%FSLAX46Y46*%
G04 Gerber Fmt 4.6, Leading zero omitted, Abs format (unit mm)*
G04 Created by KiCad (PCBNEW (6.0.1)) date 2022-05-13 18:05:17*
%MOMM*%
%LPD*%
G01*
G04 APERTURE LIST*
%ADD10C,0.150000*%
%ADD11C,0.127000*%
%ADD12C,0.200000*%
%ADD13C,0.120000*%
G04 APERTURE END LIST*
D10*
%TO.C,U2*%
X127242380Y40136905D02*
X128051904Y40136905D01*
X128147142Y40089286D01*
X128194761Y40041667D01*
X128242380Y39946429D01*
X128242380Y39755953D01*
X128194761Y39660715D01*
X128147142Y39613096D01*
X128051904Y39565477D01*
X127242380Y39565477D01*
X127337619Y39136905D02*
X127290000Y39089286D01*
X127242380Y38994048D01*
X127242380Y38755953D01*
X127290000Y38660715D01*
X127337619Y38613096D01*
X127432857Y38565477D01*
X127528095Y38565477D01*
X127670952Y38613096D01*
X128242380Y39184524D01*
X128242380Y38565477D01*
%TO.C,R45*%
X136127380Y22442858D02*
X135651190Y22776191D01*
X136127380Y23014286D02*
X135127380Y23014286D01*
X135127380Y22633334D01*
X135175000Y22538096D01*
X135222619Y22490477D01*
X135317857Y22442858D01*
X135460714Y22442858D01*
X135555952Y22490477D01*
X135603571Y22538096D01*
X135651190Y22633334D01*
X135651190Y23014286D01*
X135460714Y21585715D02*
X136127380Y21585715D01*
X135079761Y21823810D02*
X135794047Y22061905D01*
X135794047Y21442858D01*
X135127380Y20585715D02*
X135127380Y21061905D01*
X135603571Y21109524D01*
X135555952Y21061905D01*
X135508333Y20966667D01*
X135508333Y20728572D01*
X135555952Y20633334D01*
X135603571Y20585715D01*
X135698809Y20538096D01*
X135936904Y20538096D01*
X136032142Y20585715D01*
X136079761Y20633334D01*
X136127380Y20728572D01*
X136127380Y20966667D01*
X136079761Y21061905D01*
X136032142Y21109524D01*
%TO.C,R46*%
X138127380Y24942858D02*
X137651190Y25276191D01*
X138127380Y25514286D02*
X137127380Y25514286D01*
X137127380Y25133334D01*
X137175000Y25038096D01*
X137222619Y24990477D01*
X137317857Y24942858D01*
X137460714Y24942858D01*
X137555952Y24990477D01*
X137603571Y25038096D01*
X137651190Y25133334D01*
X137651190Y25514286D01*
X137460714Y24085715D02*
X138127380Y24085715D01*
X137079761Y24323810D02*
X137794047Y24561905D01*
X137794047Y23942858D01*
X137127380Y23133334D02*
X137127380Y23323810D01*
X137175000Y23419048D01*
X137222619Y23466667D01*
X137365476Y23561905D01*
X137555952Y23609524D01*
X137936904Y23609524D01*
X138032142Y23561905D01*
X138079761Y23514286D01*
X138127380Y23419048D01*
X138127380Y23228572D01*
X138079761Y23133334D01*
X138032142Y23085715D01*
X137936904Y23038096D01*
X137698809Y23038096D01*
X137603571Y23085715D01*
X137555952Y23133334D01*
X137508333Y23228572D01*
X137508333Y23419048D01*
X137555952Y23514286D01*
X137603571Y23561905D01*
X137698809Y23609524D01*
%TO.C,R44*%
X134627380Y28442858D02*
X134151190Y28776191D01*
X134627380Y29014286D02*
X133627380Y29014286D01*
X133627380Y28633334D01*
X133675000Y28538096D01*
X133722619Y28490477D01*
X133817857Y28442858D01*
X133960714Y28442858D01*
X134055952Y28490477D01*
X134103571Y28538096D01*
X134151190Y28633334D01*
X134151190Y29014286D01*
X133960714Y27585715D02*
X134627380Y27585715D01*
X133579761Y27823810D02*
X134294047Y28061905D01*
X134294047Y27442858D01*
X133960714Y26633334D02*
X134627380Y26633334D01*
X133579761Y26871429D02*
X134294047Y27109524D01*
X134294047Y26490477D01*
%TO.C,C33*%
X138532142Y18692858D02*
X138579761Y18740477D01*
X138627380Y18883334D01*
X138627380Y18978572D01*
X138579761Y19121429D01*
X138484523Y19216667D01*
X138389285Y19264286D01*
X138198809Y19311905D01*
X138055952Y19311905D01*
X137865476Y19264286D01*
X137770238Y19216667D01*
X137675000Y19121429D01*
X137627380Y18978572D01*
X137627380Y18883334D01*
X137675000Y18740477D01*
X137722619Y18692858D01*
X137627380Y18359524D02*
X137627380Y17740477D01*
X138008333Y18073810D01*
X138008333Y17930953D01*
X138055952Y17835715D01*
X138103571Y17788096D01*
X138198809Y17740477D01*
X138436904Y17740477D01*
X138532142Y17788096D01*
X138579761Y17835715D01*
X138627380Y17930953D01*
X138627380Y18216667D01*
X138579761Y18311905D01*
X138532142Y18359524D01*
X137627380Y17407143D02*
X137627380Y16788096D01*
X138008333Y17121429D01*
X138008333Y16978572D01*
X138055952Y16883334D01*
X138103571Y16835715D01*
X138198809Y16788096D01*
X138436904Y16788096D01*
X138532142Y16835715D01*
X138579761Y16883334D01*
X138627380Y16978572D01*
X138627380Y17264286D01*
X138579761Y17359524D01*
X138532142Y17407143D01*
%TO.C,C32*%
X136782142Y28692858D02*
X136829761Y28740477D01*
X136877380Y28883334D01*
X136877380Y28978572D01*
X136829761Y29121429D01*
X136734523Y29216667D01*
X136639285Y29264286D01*
X136448809Y29311905D01*
X136305952Y29311905D01*
X136115476Y29264286D01*
X136020238Y29216667D01*
X135925000Y29121429D01*
X135877380Y28978572D01*
X135877380Y28883334D01*
X135925000Y28740477D01*
X135972619Y28692858D01*
X135877380Y28359524D02*
X135877380Y27740477D01*
X136258333Y28073810D01*
X136258333Y27930953D01*
X136305952Y27835715D01*
X136353571Y27788096D01*
X136448809Y27740477D01*
X136686904Y27740477D01*
X136782142Y27788096D01*
X136829761Y27835715D01*
X136877380Y27930953D01*
X136877380Y28216667D01*
X136829761Y28311905D01*
X136782142Y28359524D01*
X135972619Y27359524D02*
X135925000Y27311905D01*
X135877380Y27216667D01*
X135877380Y26978572D01*
X135925000Y26883334D01*
X135972619Y26835715D01*
X136067857Y26788096D01*
X136163095Y26788096D01*
X136305952Y26835715D01*
X136877380Y27407143D01*
X136877380Y26788096D01*
%TO.C,D12*%
X119877380Y37514286D02*
X118877380Y37514286D01*
X118877380Y37276191D01*
X118925000Y37133334D01*
X119020238Y37038096D01*
X119115476Y36990477D01*
X119305952Y36942858D01*
X119448809Y36942858D01*
X119639285Y36990477D01*
X119734523Y37038096D01*
X119829761Y37133334D01*
X119877380Y37276191D01*
X119877380Y37514286D01*
X119877380Y35990477D02*
X119877380Y36561905D01*
X119877380Y36276191D02*
X118877380Y36276191D01*
X119020238Y36371429D01*
X119115476Y36466667D01*
X119163095Y36561905D01*
X118972619Y35609524D02*
X118925000Y35561905D01*
X118877380Y35466667D01*
X118877380Y35228572D01*
X118925000Y35133334D01*
X118972619Y35085715D01*
X119067857Y35038096D01*
X119163095Y35038096D01*
X119305952Y35085715D01*
X119877380Y35657143D01*
X119877380Y35038096D01*
%TO.C,C34*%
X138532142Y15942858D02*
X138579761Y15990477D01*
X138627380Y16133334D01*
X138627380Y16228572D01*
X138579761Y16371429D01*
X138484523Y16466667D01*
X138389285Y16514286D01*
X138198809Y16561905D01*
X138055952Y16561905D01*
X137865476Y16514286D01*
X137770238Y16466667D01*
X137675000Y16371429D01*
X137627380Y16228572D01*
X137627380Y16133334D01*
X137675000Y15990477D01*
X137722619Y15942858D01*
X137627380Y15609524D02*
X137627380Y14990477D01*
X138008333Y15323810D01*
X138008333Y15180953D01*
X138055952Y15085715D01*
X138103571Y15038096D01*
X138198809Y14990477D01*
X138436904Y14990477D01*
X138532142Y15038096D01*
X138579761Y15085715D01*
X138627380Y15180953D01*
X138627380Y15466667D01*
X138579761Y15561905D01*
X138532142Y15609524D01*
X137960714Y14133334D02*
X138627380Y14133334D01*
X137579761Y14371429D02*
X138294047Y14609524D01*
X138294047Y13990477D01*
%TO.C,C3*%
X138532142Y50216667D02*
X138579761Y50264286D01*
X138627380Y50407143D01*
X138627380Y50502381D01*
X138579761Y50645239D01*
X138484523Y50740477D01*
X138389285Y50788096D01*
X138198809Y50835715D01*
X138055952Y50835715D01*
X137865476Y50788096D01*
X137770238Y50740477D01*
X137675000Y50645239D01*
X137627380Y50502381D01*
X137627380Y50407143D01*
X137675000Y50264286D01*
X137722619Y50216667D01*
X137627380Y49883334D02*
X137627380Y49264286D01*
X138008333Y49597620D01*
X138008333Y49454762D01*
X138055952Y49359524D01*
X138103571Y49311905D01*
X138198809Y49264286D01*
X138436904Y49264286D01*
X138532142Y49311905D01*
X138579761Y49359524D01*
X138627380Y49454762D01*
X138627380Y49740477D01*
X138579761Y49835715D01*
X138532142Y49883334D01*
%TO.C,L1*%
X121277380Y25216667D02*
X121277380Y25692858D01*
X120277380Y25692858D01*
X121277380Y24359524D02*
X121277380Y24930953D01*
X121277380Y24645239D02*
X120277380Y24645239D01*
X120420238Y24740477D01*
X120515476Y24835715D01*
X120563095Y24930953D01*
%TO.C,C30*%
X128032142Y42692858D02*
X128079761Y42740477D01*
X128127380Y42883334D01*
X128127380Y42978572D01*
X128079761Y43121429D01*
X127984523Y43216667D01*
X127889285Y43264286D01*
X127698809Y43311905D01*
X127555952Y43311905D01*
X127365476Y43264286D01*
X127270238Y43216667D01*
X127175000Y43121429D01*
X127127380Y42978572D01*
X127127380Y42883334D01*
X127175000Y42740477D01*
X127222619Y42692858D01*
X127127380Y42359524D02*
X127127380Y41740477D01*
X127508333Y42073810D01*
X127508333Y41930953D01*
X127555952Y41835715D01*
X127603571Y41788096D01*
X127698809Y41740477D01*
X127936904Y41740477D01*
X128032142Y41788096D01*
X128079761Y41835715D01*
X128127380Y41930953D01*
X128127380Y42216667D01*
X128079761Y42311905D01*
X128032142Y42359524D01*
X127127380Y41121429D02*
X127127380Y41026191D01*
X127175000Y40930953D01*
X127222619Y40883334D01*
X127317857Y40835715D01*
X127508333Y40788096D01*
X127746428Y40788096D01*
X127936904Y40835715D01*
X128032142Y40883334D01*
X128079761Y40930953D01*
X128127380Y41026191D01*
X128127380Y41121429D01*
X128079761Y41216667D01*
X128032142Y41264286D01*
X127936904Y41311905D01*
X127746428Y41359524D01*
X127508333Y41359524D01*
X127317857Y41311905D01*
X127222619Y41264286D01*
X127175000Y41216667D01*
X127127380Y41121429D01*
%TO.C,C29*%
X138532142Y43192858D02*
X138579761Y43240477D01*
X138627380Y43383334D01*
X138627380Y43478572D01*
X138579761Y43621429D01*
X138484523Y43716667D01*
X138389285Y43764286D01*
X138198809Y43811905D01*
X138055952Y43811905D01*
X137865476Y43764286D01*
X137770238Y43716667D01*
X137675000Y43621429D01*
X137627380Y43478572D01*
X137627380Y43383334D01*
X137675000Y43240477D01*
X137722619Y43192858D01*
X137722619Y42811905D02*
X137675000Y42764286D01*
X137627380Y42669048D01*
X137627380Y42430953D01*
X137675000Y42335715D01*
X137722619Y42288096D01*
X137817857Y42240477D01*
X137913095Y42240477D01*
X138055952Y42288096D01*
X138627380Y42859524D01*
X138627380Y42240477D01*
X138627380Y41764286D02*
X138627380Y41573810D01*
X138579761Y41478572D01*
X138532142Y41430953D01*
X138389285Y41335715D01*
X138198809Y41288096D01*
X137817857Y41288096D01*
X137722619Y41335715D01*
X137675000Y41383334D01*
X137627380Y41478572D01*
X137627380Y41669048D01*
X137675000Y41764286D01*
X137722619Y41811905D01*
X137817857Y41859524D01*
X138055952Y41859524D01*
X138151190Y41811905D01*
X138198809Y41764286D01*
X138246428Y41669048D01*
X138246428Y41478572D01*
X138198809Y41383334D01*
X138151190Y41335715D01*
X138055952Y41288096D01*
%TO.C,C4*%
X138532142Y47716667D02*
X138579761Y47764286D01*
X138627380Y47907143D01*
X138627380Y48002381D01*
X138579761Y48145239D01*
X138484523Y48240477D01*
X138389285Y48288096D01*
X138198809Y48335715D01*
X138055952Y48335715D01*
X137865476Y48288096D01*
X137770238Y48240477D01*
X137675000Y48145239D01*
X137627380Y48002381D01*
X137627380Y47907143D01*
X137675000Y47764286D01*
X137722619Y47716667D01*
X137960714Y46859524D02*
X138627380Y46859524D01*
X137579761Y47097620D02*
X138294047Y47335715D01*
X138294047Y46716667D01*
%TO.C,R43*%
X136127380Y45442858D02*
X135651190Y45776191D01*
X136127380Y46014286D02*
X135127380Y46014286D01*
X135127380Y45633334D01*
X135175000Y45538096D01*
X135222619Y45490477D01*
X135317857Y45442858D01*
X135460714Y45442858D01*
X135555952Y45490477D01*
X135603571Y45538096D01*
X135651190Y45633334D01*
X135651190Y46014286D01*
X135460714Y44585715D02*
X136127380Y44585715D01*
X135079761Y44823810D02*
X135794047Y45061905D01*
X135794047Y44442858D01*
X135127380Y44157143D02*
X135127380Y43538096D01*
X135508333Y43871429D01*
X135508333Y43728572D01*
X135555952Y43633334D01*
X135603571Y43585715D01*
X135698809Y43538096D01*
X135936904Y43538096D01*
X136032142Y43585715D01*
X136079761Y43633334D01*
X136127380Y43728572D01*
X136127380Y44014286D01*
X136079761Y44109524D01*
X136032142Y44157143D01*
%TO.C,C31*%
X135817857Y34872858D02*
X135865476Y34825239D01*
X136008333Y34777620D01*
X136103571Y34777620D01*
X136246428Y34825239D01*
X136341666Y34920477D01*
X136389285Y35015715D01*
X136436904Y35206191D01*
X136436904Y35349048D01*
X136389285Y35539524D01*
X136341666Y35634762D01*
X136246428Y35730000D01*
X136103571Y35777620D01*
X136008333Y35777620D01*
X135865476Y35730000D01*
X135817857Y35682381D01*
X135484523Y35777620D02*
X134865476Y35777620D01*
X135198809Y35396667D01*
X135055952Y35396667D01*
X134960714Y35349048D01*
X134913095Y35301429D01*
X134865476Y35206191D01*
X134865476Y34968096D01*
X134913095Y34872858D01*
X134960714Y34825239D01*
X135055952Y34777620D01*
X135341666Y34777620D01*
X135436904Y34825239D01*
X135484523Y34872858D01*
X133913095Y34777620D02*
X134484523Y34777620D01*
X134198809Y34777620D02*
X134198809Y35777620D01*
X134294047Y35634762D01*
X134389285Y35539524D01*
X134484523Y35491905D01*
D11*
%TO.C,U2*%
X133900000Y41250000D02*
X133900000Y37350000D01*
X128900000Y41250000D02*
X128900000Y37350000D01*
D12*
X129320000Y43770000D02*
G75*
G03*
X129320000Y43770000I-100000J0D01*
G01*
D13*
%TO.C,R45*%
X134697500Y22054724D02*
X134697500Y21545276D01*
X133652500Y22054724D02*
X133652500Y21545276D01*
%TO.C,R46*%
X135429724Y23777500D02*
X134920276Y23777500D01*
X135429724Y24822500D02*
X134920276Y24822500D01*
%TO.C,R44*%
X133652500Y31054724D02*
X133652500Y30545276D01*
X134697500Y31054724D02*
X134697500Y30545276D01*
%TO.C,C33*%
X133963748Y17140000D02*
X135386252Y17140000D01*
X133963748Y18960000D02*
X135386252Y18960000D01*
%TO.C,C32*%
X136785000Y30915835D02*
X136785000Y30684165D01*
X136065000Y30915835D02*
X136065000Y30684165D01*
%TO.C,D12*%
X120425000Y31750000D02*
X126925000Y31750000D01*
X126925000Y31750000D02*
X126925000Y40150000D01*
X120425000Y31750000D02*
X120425000Y40150000D01*
%TO.C,C34*%
X133963748Y14640000D02*
X135386252Y14640000D01*
X133963748Y16460000D02*
X135386252Y16460000D01*
%TO.C,C3*%
X134213748Y49140000D02*
X135636252Y49140000D01*
X134213748Y50960000D02*
X135636252Y50960000D01*
%TO.C,L1*%
X129275000Y19750000D02*
X132475000Y19750000D01*
X132475000Y30350000D02*
X129275000Y30350000D01*
X132475000Y19750000D02*
X132475000Y30350000D01*
X121875000Y19750000D02*
X125075000Y19750000D01*
X121875000Y30350000D02*
X121875000Y19750000D01*
X125075000Y30350000D02*
X121875000Y30350000D01*
%TO.C,C30*%
X128285000Y39415835D02*
X128285000Y39184165D01*
X127565000Y39415835D02*
X127565000Y39184165D01*
%TO.C,C29*%
X136290835Y42910000D02*
X136059165Y42910000D01*
X136290835Y42190000D02*
X136059165Y42190000D01*
%TO.C,C4*%
X134213748Y48460000D02*
X135636252Y48460000D01*
X134213748Y46640000D02*
X135636252Y46640000D01*
%TO.C,R43*%
X133429724Y44527500D02*
X132920276Y44527500D01*
X133429724Y45572500D02*
X132920276Y45572500D01*
%TO.C,C31*%
X135436252Y32815000D02*
X134913748Y32815000D01*
X135436252Y34285000D02*
X134913748Y34285000D01*
%TD*%
M02*
